<?xml version="1.0"?>
<svg version="1.1" xmlns="http://www.w3.org/2000/svg" width="400" height="200" style=""><path fill="#8f8f8f" d="M29.314453125,111.23828125q0,2.70703125-1.9482421875,4.265625t-5.4208984375,1.55859375q-3.19921875,0-5.66015625-1.203125l0-3.9375q2.0234375,0.90234375,3.4248046875,1.271484375t2.5634765625,0.369140625q1.39453125,0,2.1396484375-0.533203125t0.7451171875-1.5859375q0-0.587890625-0.328125-1.0458984375t-0.9638671875-0.8818359375t-2.5908203125-1.353515625q-1.83203125-0.861328125-2.748046875-1.654296875t-1.462890625-1.845703125t-0.546875-2.4609375q0-2.65234375,1.7978515625-4.169921875t4.9697265625-1.517578125q1.55859375,0,2.9736328125,0.369140625t2.9599609375,1.0390625l-1.3671875,3.294921875q-1.599609375-0.65625-2.6455078125-0.916015625t-2.0576171875-0.259765625q-1.203125,0-1.845703125,0.560546875t-0.642578125,1.462890625q0,0.560546875,0.259765625,0.9775390625t0.8271484375,0.806640625t2.6865234375,1.4013671875q2.802734375,1.33984375,3.841796875,2.6865234375t1.0390625,3.3017578125z M45.36208984375,116.7890625l-0.560546875-1.955078125l-0.21875,0q-0.669921875,1.06640625-1.900390625,1.6474609375t-2.802734375,0.5810546875q-2.693359375,0-4.060546875-1.4423828125t-1.3671875-4.1494140625l0-9.966796875l4.169921875,0l0,8.927734375q0,1.654296875,0.587890625,2.4814453125t1.873046875,0.8271484375q1.75,0,2.529296875-1.1689453125t0.779296875-3.8759765625l0-7.19140625l4.169921875,0l0,15.28515625l-3.19921875,0z M68.9702734375,116.7890625l-4.169921875,0l0-8.927734375q0-1.654296875-0.587890625-2.4814453125t-1.873046875-0.8271484375q-1.75,0-2.529296875,1.1689453125t-0.779296875,3.8759765625l0,7.19140625l-4.169921875,0l0-15.28515625l3.185546875,0l0.560546875,1.955078125l0.232421875,0q0.697265625-1.107421875,1.9208984375-1.6748046875t2.7822265625-0.5673828125q2.666015625,0,4.046875,1.4423828125t1.380859375,4.1630859375l0,9.966796875z M78.51009765625,109.119140625q0,2.26953125,0.7451171875,3.431640625t2.4267578125,1.162109375q1.66796875,0,2.3994140625-1.1552734375t0.7314453125-3.4384765625q0-2.26953125-0.73828125-3.404296875t-2.419921875-1.134765625q-1.66796875,0-2.40625,1.1279296875t-0.73828125,3.4111328125z M89.07845703125,109.119140625q0,3.732421875-1.96875,5.837890625t-5.482421875,2.10546875q-2.201171875,0-3.8828125-0.9638671875t-2.583984375-2.7685546875t-0.90234375-4.2109375q0-3.74609375,1.955078125-5.82421875t5.49609375-2.078125q2.201171875,0,3.8828125,0.95703125t2.583984375,2.748046875t0.90234375,4.197265625z"/><path fill="#" d=""/></svg>
